<svg width="39" height="39" viewBox="0 0 39 39" fill="none" xmlns="http://www.w3.org/2000/svg">
<circle cx="19.03" cy="19.03" r="18.165" fill="#190E3A" fill-opacity="0.44" stroke="#AD4BF6" stroke-width="1.73"/>
<path d="M26.5528 14.4155L22.1506 9.96641C22.0279 9.84242 21.8602 9.77216 21.6863 9.77216H12.9986C12.6365 9.77216 12.344 10.0677 12.344 10.4334V27.6266C12.344 27.9923 12.6365 28.2878 12.9986 28.2878H26.0905C26.4526 28.2878 26.7451 27.9923 26.7451 27.6266V14.8826C26.7451 14.7069 26.6755 14.5395 26.5528 14.4155ZM25.2354 15.1863H21.3856V11.2972L25.2354 15.1863ZM25.2722 26.8H13.8168V11.26H19.9946V15.7236C19.9946 15.9538 20.0851 16.1746 20.2462 16.3373C20.4073 16.5001 20.6259 16.5915 20.8537 16.5915H25.2722V26.8ZM17.2944 19.7946C17.2944 19.9062 17.3844 19.9909 17.4948 19.9909H18.1576C18.2681 19.9909 18.3581 19.9041 18.3581 19.7967C18.3581 19.2139 18.8858 18.7304 19.5445 18.7304C20.2032 18.7304 20.731 19.2139 20.731 19.7946C20.731 20.3174 20.3014 20.77 19.7225 20.8464C19.3277 20.9043 19.0168 21.2659 19.0127 21.6751V22.3364C19.0127 22.45 19.1047 22.543 19.2172 22.543H19.8718C19.9843 22.543 20.0764 22.45 20.0764 22.3364V22.0843C20.0764 21.9603 20.1582 21.8466 20.2748 21.8094C21.1872 21.5118 21.809 20.6935 21.7947 19.7657C21.7783 18.6188 20.7883 17.6826 19.5752 17.6661C18.3192 17.6517 17.2944 18.6084 17.2944 19.7946ZM18.8899 23.8242C18.8899 23.9996 18.9589 24.1678 19.0817 24.2918C19.2044 24.4158 19.3709 24.4855 19.5445 24.4855C19.7181 24.4855 19.8846 24.4158 20.0074 24.2918C20.1302 24.1678 20.1991 23.9996 20.1991 23.8242C20.1991 23.6489 20.1302 23.4807 20.0074 23.3566C19.8846 23.2326 19.7181 23.163 19.5445 23.163C19.3709 23.163 19.2044 23.2326 19.0817 23.3566C18.9589 23.4807 18.8899 23.6489 18.8899 23.8242Z" fill="#AD4BF6"/>
</svg>
