<svg width="24" height="18" viewBox="0 0 24 18" fill="none" xmlns="http://www.w3.org/2000/svg">
<path fill-rule="evenodd" clip-rule="evenodd" d="M15.6219 9C15.6219 10.0609 15.2005 11.0783 14.4504 11.8284C13.7002 12.5786 12.6828 13 11.6219 13C10.5611 13 9.54367 12.5786 8.79352 11.8284C8.04338 11.0783 7.62195 10.0609 7.62195 9C7.62195 7.93913 8.04338 6.92172 8.79352 6.17157C9.54367 5.42143 10.5611 5 11.6219 5C12.6828 5 13.7002 5.42143 14.4504 6.17157C15.2005 6.92172 15.6219 7.93913 15.6219 9ZM13.6219 9C13.6219 9.53043 13.4112 10.0391 13.0362 10.4142C12.6611 10.7893 12.1524 11 11.6219 11C11.0915 11 10.5828 10.7893 10.2077 10.4142C9.83266 10.0391 9.62195 9.53043 9.62195 9C9.62195 8.46957 9.83266 7.96086 10.2077 7.58579C10.5828 7.21071 11.0915 7 11.6219 7C12.1524 7 12.6611 7.21071 13.0362 7.58579C13.4112 7.96086 13.6219 8.46957 13.6219 9Z" fill="url(#paint0_linear_25_566)"/>
<path fill-rule="evenodd" clip-rule="evenodd" d="M11.622 0C17.214 0 21.912 3.824 23.244 9C21.912 14.176 17.214 18 11.622 18C6.03 18 1.332 14.176 0 9C1.332 3.824 6.03 0 11.622 0ZM11.622 16C7.146 16 3.353 13.058 2.079 9C3.353 4.942 7.146 2 11.622 2C16.098 2 19.891 4.942 21.165 9C19.891 13.058 16.098 16 11.622 16Z" fill="url(#paint1_linear_25_566)"/>
<defs>
<linearGradient id="paint0_linear_25_566" x1="8.73306" y1="8.80952" x2="14.9553" y2="8.80952" gradientUnits="userSpaceOnUse">
<stop stop-color="#1C68FD"/>
<stop offset="1" stop-color="#DA29F4"/>
</linearGradient>
<linearGradient id="paint1_linear_25_566" x1="3.22833" y1="8.57143" x2="21.307" y2="8.57143" gradientUnits="userSpaceOnUse">
<stop stop-color="#1C68FD"/>
<stop offset="1" stop-color="#DA29F4"/>
</linearGradient>
</defs>
</svg>
