<svg width="24" height="24" viewBox="0 0 24 24" fill="none" xmlns="http://www.w3.org/2000/svg">
<path d="M12 12C13.6569 12 15 10.6569 15 9C15 7.34315 13.6569 6 12 6C10.3431 6 9 7.34315 9 9C9 10.6569 10.3431 12 12 12Z" stroke="url(#paint0_linear_3_120)" stroke-width="1.5"/>
<path d="M12 22C17.5228 22 22 17.5228 22 12C22 6.47715 17.5228 2 12 2C6.47715 2 2 6.47715 2 12C2 17.5228 6.47715 22 12 22Z" stroke="url(#paint1_linear_3_120)" stroke-width="1.5"/>
<path d="M17.9691 20C17.81 17.1085 16.9247 15 11.9999 15C7.07521 15 6.18991 17.1085 6.03076 20" stroke="url(#paint2_linear_3_120)" stroke-width="1.5" stroke-linecap="round"/>
<defs>
<linearGradient id="paint0_linear_3_120" x1="9.83333" y1="8.85714" x2="14.5" y2="8.85714" gradientUnits="userSpaceOnUse">
<stop stop-color="#1C68FD"/>
<stop offset="1" stop-color="#DA29F4"/>
</linearGradient>
<linearGradient id="paint1_linear_3_120" x1="4.77778" y1="11.5238" x2="20.3333" y2="11.5238" gradientUnits="userSpaceOnUse">
<stop stop-color="#1C68FD"/>
<stop offset="1" stop-color="#DA29F4"/>
</linearGradient>
<linearGradient id="paint2_linear_3_120" x1="7.68886" y1="17.381" x2="16.9742" y2="17.381" gradientUnits="userSpaceOnUse">
<stop stop-color="#1C68FD"/>
<stop offset="1" stop-color="#DA29F4"/>
</linearGradient>
</defs>
</svg>
