<svg width="24" height="24" viewBox="0 0 24 24" fill="none" xmlns="http://www.w3.org/2000/svg">
<path d="M11.42 15.17L17.25 21C17.75 21.484 18.4202 21.7521 19.1161 21.7465C19.812 21.7408 20.4777 21.4619 20.9698 20.9698C21.4619 20.4777 21.7408 19.812 21.7465 19.1161C21.7521 18.4202 21.484 17.75 21 17.25L15.123 11.373M10.015 11.606L11.76 10.169L7.5 5.909V4.5L3.75 2.25L2.25 3.75L4.5 7.5H5.909L10.016 11.607L3.179 17.237C2.90399 17.4626 2.67927 17.7433 2.51929 18.061C2.35932 18.3787 2.26764 18.7264 2.25015 19.0817C2.23266 19.4369 2.28976 19.792 2.41776 20.1238C2.54577 20.4557 2.74184 20.7571 2.99336 21.0086C3.24489 21.2602 3.54629 21.4562 3.87817 21.5842C4.21005 21.7122 4.56505 21.7693 4.92033 21.7518C5.27561 21.7344 5.62329 21.6427 5.94099 21.4827C6.2587 21.3227 6.53939 21.098 6.765 20.823L11.42 15.17L13.916 12.14C14.233 11.756 14.656 11.514 15.124 11.374C15.674 11.21 16.287 11.186 16.867 11.234C16.9937 11.2453 17.1217 11.251 17.251 11.251C18.0031 11.2511 18.7432 11.0628 19.4037 10.7031C20.0642 10.3435 20.624 9.82401 21.032 9.19222C21.44 8.56044 21.6832 7.83647 21.7392 7.08649C21.7953 6.3365 21.6625 5.58443 21.353 4.899L18.077 8.175C17.5287 8.0487 17.027 7.77074 16.6291 7.37288C16.2313 6.97502 15.9533 6.4733 15.827 5.925L19.103 2.649C18.3879 2.32596 17.6007 2.19554 16.8196 2.27068C16.0385 2.34582 15.2906 2.62391 14.6502 3.07735C14.0098 3.53079 13.499 4.14381 13.1687 4.8556C12.8383 5.56738 12.6999 6.35317 12.767 7.135C12.858 8.211 12.696 9.399 11.863 10.085L11.761 10.17M18.375 18.375L15.75 15.75M4.867 19.125H4.875V19.133H4.867V19.125Z" stroke="url(#paint0_linear_29_629)" stroke-width="1.5" stroke-linecap="round" stroke-linejoin="round"/>
<defs>
<linearGradient id="paint0_linear_29_629" x1="4.95606" y1="11.5381" x2="20.1264" y2="11.5381" gradientUnits="userSpaceOnUse">
<stop stop-color="#1C68FD"/>
<stop offset="1" stop-color="#DA29F4"/>
</linearGradient>
</defs>
</svg>
