<svg width="24" height="24" viewBox="0 0 24 24" fill="none" xmlns="http://www.w3.org/2000/svg">
<path d="M19.275 21.885C19.1703 21.8857 19.0653 21.879 18.96 21.865C14.6703 21.3657 10.6749 19.4325 7.62121 16.3788C4.56747 13.3251 2.63433 9.32967 2.13501 5.04C2.04501 4.28 2.28501 3.51 2.80001 2.93C3.32501 2.34 4.08001 2 4.87001 2H8.86501C9.43001 2 9.92501 2.38 10.075 2.925L11.065 6.615C11.18 7.045 11.055 7.51 10.74 7.825L8.83001 9.735C10.1164 12.0081 11.9969 13.8886 14.27 15.175L16.18 13.265C16.495 12.95 16.955 12.825 17.39 12.94L21.08 13.93C21.625 14.075 22.005 14.575 22.005 15.14V19.135C22.005 19.925 21.665 20.68 21.075 21.205C20.5809 21.6457 19.9421 21.8895 19.28 21.89L19.275 21.885ZM4.87001 3.5C4.51001 3.5 4.16501 3.655 3.92501 3.925C3.69001 4.19 3.58501 4.52 3.62501 4.865C4.08397 8.81991 5.8656 12.5038 8.68091 15.3191C11.4962 18.1344 15.1801 19.916 19.135 20.375C19.475 20.415 19.81 20.31 20.075 20.075C20.345 19.835 20.5 19.49 20.5 19.13V15.325L17.135 14.425L14.545 17.015L14.06 16.765C11.1328 15.2522 8.74785 12.8672 7.23501 9.94L6.98501 9.455L9.57501 6.865L8.67501 3.5H4.87001Z" fill="url(#paint0_linear_10_160)"/>
<defs>
<linearGradient id="paint0_linear_10_160" x1="4.87875" y1="11.4714" x2="20.3476" y2="11.4714" gradientUnits="userSpaceOnUse">
<stop stop-color="#1C68FD"/>
<stop offset="1" stop-color="#DA29F4"/>
</linearGradient>
</defs>
</svg>
