<svg width="22" height="22" viewBox="0 0 22 22" fill="none" xmlns="http://www.w3.org/2000/svg">
<path fill-rule="evenodd" clip-rule="evenodd" d="M11 22C17.075 22 22 17.075 22 11C22 4.925 17.075 4.30557e-07 11 9.61651e-07C4.925 1.49274e-06 -1.49274e-06 4.925 -9.61651e-07 11C-4.30557e-07 17.075 4.925 22 11 22ZM10 16C10 16.2652 10.1054 16.5196 10.2929 16.7071C10.4804 16.8946 10.7348 17 11 17C11.2652 17 11.5196 16.8946 11.7071 16.7071C11.8946 16.5196 12 16.2652 12 16L12 10C12 9.73478 11.8946 9.48043 11.7071 9.29289C11.5196 9.10536 11.2652 9 11 9C10.7348 9 10.4804 9.10536 10.2929 9.29289C10.1054 9.48043 10 9.73478 10 10L10 16ZM10 6.5C10 6.76522 10.1054 7.01957 10.2929 7.20711C10.4804 7.39464 10.7348 7.5 11 7.5C11.2652 7.5 11.5196 7.39464 11.7071 7.20711C11.8946 7.01957 12 6.76522 12 6.5L12 6C12 5.73478 11.8946 5.48043 11.7071 5.29289C11.5196 5.10536 11.2652 5 11 5C10.7348 5 10.4804 5.10536 10.2929 5.29289C10.1054 5.48043 10 5.73478 10 6L10 6.5Z" fill="#016ACD"/>
</svg>
